<svg xmlns="http://www.w3.org/2000/svg" viewBox="0 0 48 48"><g data-name="Layer 2"><path fill="#8cb289" d="M17.8,41.314a6.2,6.2,0,1,0,12.4,0Z"/><path fill="#ffc492" d="M24.138,10.968C13.7,10.968,8.492,34.744,8.492,34.744H39.508S34.577,10.968,24.138,10.968Z"/><path fill="#ba8680" d="M41.457,36.692c-.494-1.115-.873-1.948-1.949-1.948H8.492c-1.077,0-1.5.711-1.949,1.948L5.872,38.5a2.087,2.087,0,0,0,1.956,2.814H40.18a2.088,2.088,0,0,0,1.954-2.822Z"/><path fill="#e9535c" d="M34.592.535,25.6,2.847a1.826,1.826,0,0,0-1.151,1.1h-.906a1.826,1.826,0,0,0-1.151-1.1L13.408.535c-.677-.174-1.282.751-1.279,1.955l.017,8.328c0,1.169.578,2.08,1.237,1.962l8.946-1.608a1.686,1.686,0,0,0,1.076-.858H24.6a1.683,1.683,0,0,0,1.076.858l8.946,1.608c.659.118,1.234-.793,1.236-1.962l.018-8.328C35.874,1.286,35.268.361,34.592.535Z"/><ellipse cx="24" cy="7.138" fill="#3b8f75" data-name="&lt;Path&gt;" rx="3.268" ry="3.22"/></g><g data-name="Layer 1"><path fill="#363635" d="M42.6,38.316l-.677-1.8a.218.218,0,0,0-.011-.027c-.438-.99-.891-2.01-2-2.211-.566-2.559-3.987-16.838-10.747-21.97l5.355.963a1.158,1.158,0,0,0,.2.018,1.243,1.243,0,0,0,.8-.3,2.872,2.872,0,0,0,.825-2.166l.017-8.327a2.811,2.811,0,0,0-.86-2.207A1.2,1.2,0,0,0,34.467.05L25.479,2.362a2.21,2.21,0,0,0-1.31,1.073c-.057,0-.111-.017-.169-.017s-.112.014-.169.017a2.21,2.21,0,0,0-1.31-1.073L13.532.05a1.2,1.2,0,0,0-1.043.235,2.811,2.811,0,0,0-.86,2.207l.017,8.328a2.871,2.871,0,0,0,.825,2.165,1.243,1.243,0,0,0,.8.3,1.158,1.158,0,0,0,.2-.018l5.7-1.024C12.3,17.323,8.685,31.705,8.086,34.274c-1.163.183-1.619,1.164-2.012,2.245L5.4,38.326a2.587,2.587,0,0,0,2.425,3.488h9.5a6.693,6.693,0,0,0,13.35,0h9.5a2.587,2.587,0,0,0,2.422-3.5ZM25.729,3.331l8.987-2.312c.025-.007.083-.02.181.056a1.885,1.885,0,0,1,.474,1.415l-.017,8.327a1.918,1.918,0,0,1-.465,1.4c-.1.085-.164.074-.184.071l-8.6-1.546c-.157-.044-.317-.075-.476-.108a.849.849,0,0,1-.144-.078,3.69,3.69,0,0,0-.241-6.914A1.061,1.061,0,0,1,25.729,3.331ZM24,4.418a2.721,2.721,0,1,1-2.769,2.72A2.747,2.747,0,0,1,24,4.418Zm-10.7,7.87c-.021,0-.081.015-.184-.071a1.918,1.918,0,0,1-.465-1.4L12.629,2.49A1.885,1.885,0,0,1,13.1,1.075c.1-.076.157-.063.18-.056l8.988,2.312a1.061,1.061,0,0,1,.487.311,3.69,3.69,0,0,0-.242,6.914.768.768,0,0,1-.276.124ZM24,47.014a5.706,5.706,0,0,1-5.675-5.2h11.35A5.706,5.706,0,0,1,24,47.014ZM41.484,40.13a1.564,1.564,0,0,1-1.3.684H7.828a1.586,1.586,0,0,1-1.487-2.14l.672-1.811c.463-1.271.78-1.619,1.479-1.619h2.7a.5.5,0,0,0,0-1H9.124c.9-3.669,6-22.776,15.014-22.776a6.272,6.272,0,0,1,1.3.15c.05.014.1.037.148.046l.358.064c7.863,2.3,12.152,19.114,12.943,22.516H13.66a.5.5,0,1,0,0,1H39.508c.692,0,.959.449,1.486,1.638l.672,1.786A1.566,1.566,0,0,1,41.484,40.13Z"/><path fill="#363635" d="M33.173 28.636q.27.8.525 1.649a.5.5 0 0 0 .479.356.517.517 0 0 0 .144-.021A.5.5 0 0 0 34.655 30q-.26-.864-.535-1.681a.5.5 0 1 0-.947.32zM32.2 25.98a.5.5 0 0 0 .464.314.493.493 0 0 0 .187-.036.5.5 0 0 0 .277-.65 28.765 28.765 0 0 0-5.371-9.041.5.5 0 1 0-.717.7A27.824 27.824 0 0 1 32.2 25.98z"/></g></svg>